<?xml version="1.0" encoding="UTF-8" standalone="no"?>
<!-- Created with Inkscape (http://www.inkscape.org/) -->

<svg
   xmlns:dc="http://purl.org/dc/elements/1.1/"
   xmlns:cc="http://creativecommons.org/ns#"
   xmlns:rdf="http://www.w3.org/1999/02/22-rdf-syntax-ns#"
   xmlns:svg="http://www.w3.org/2000/svg"
   xmlns="http://www.w3.org/2000/svg"
   xmlns:sodipodi="http://sodipodi.sourceforge.net/DTD/sodipodi-0.dtd"
   xmlns:inkscape="http://www.inkscape.org/namespaces/inkscape"
   width="210mm"
   height="297mm"
   viewBox="0 0 744.09448819 1052.3622047"
   id="svg5493"
   version="1.1"
   inkscape:version="0.91 r13725"
   sodipodi:docname="Artwork-Player-v3.svg"
   inkscape:export-filename="/home/lissi/dev/swordknights/res/player1v3_attack.png"
   inkscape:export-xdpi="300"
   inkscape:export-ydpi="300">
  <defs
     id="defs5495">
    <inkscape:path-effect
       effect="spiro"
       id="path-effect6201"
       is_visible="true" />
  </defs>
  <sodipodi:namedview
     id="base"
     pagecolor="#ffffff"
     bordercolor="#666666"
     borderopacity="1.0"
     inkscape:pageopacity="0.0"
     inkscape:pageshadow="2"
     inkscape:zoom="1.4"
     inkscape:cx="488.48418"
     inkscape:cy="618.4082"
     inkscape:document-units="px"
     inkscape:current-layer="layer1"
     showgrid="false"
     inkscape:window-width="1366"
     inkscape:window-height="705"
     inkscape:window-x="0"
     inkscape:window-y="0"
     inkscape:window-maximized="1" />
  <metadata
     id="metadata5498">
    <rdf:RDF>
      <cc:Work
         rdf:about="">
        <dc:format>image/svg+xml</dc:format>
        <dc:type
           rdf:resource="http://purl.org/dc/dcmitype/StillImage" />
        <dc:title />
      </cc:Work>
    </rdf:RDF>
  </metadata>
  <g
     inkscape:label="Ebene 1"
     inkscape:groupmode="layer"
     id="layer1">
    <path
       style="fill:#00ff00;fill-rule:evenodd;stroke:#000000;stroke-width:1px;stroke-linecap:butt;stroke-linejoin:miter;stroke-opacity:1"
       d="m 273.99069,564.47391 5.9283,0.052 -0.2918,-7.2176 7.4573,-0.027 -0.2895,-5.7948 -6.4281,0.1311 -0.1846,-5.9146 -5.8584,0.1583 -0.3167,-6.4126 -6.4918,-0.2375 -0.1583,-19.0795 6.0168,-0.079 0,-6.5709 6.4126,0 -0.079,-12.58778 6.3335,-0.15834 0,-6.33345 12.6669,0 0,-11.79606 -18.842,0 0,-6.49179 -12.4295,0 0,-6.41262 -6.3334,0 0,-6.41262 -12.5877,0 0,-6.49179 18.5253,0 0,5.93761 13.1419,0 0,6.17512 6.096,0 0,-6.09595 12.271,0 0,-12.90441 6.6502,0 0,-5.77928 -6.3335,0 c 0,0 -0.5542,-25.88799 0,-25.88799 l 25.7297,0 0,25.25465 24.6213,0 0,-11.47939 -5.7793,0 0,-6.80846 -6.571,0 0,-6.9668 19.7921,0 0,13.37942 6.2543,0 0,25.49215 -12.7461,0 0,6.25429 -19.0004,0 0,43.46329 6.4918,0 0,31.509 6.0168,0 0,31.9047 6.1751,0 0,13.3795 -12.3502,0 0,-6.571 -6.8085,0 0,-25.1755 -6.5709,0 0,-18.842 -6.4127,0 0,-18.9212 -6.0167,0 0,-6.3335 -5.8585,0 0,6.0168 -12.5086,0 0,6.096 -6.4917,0 0,6.8084 -6.096,0 0,5.3043 5.7001,0 0,6.6501 6.7293,0 0,12.2711 6.3335,0 0,13.1419 -6.2543,0 0,6.571 -6.3335,0 0,6.4918 -13.2211,0 c 0,-4.1951 0.3,-8.6339 0.3,-12.6591 z"
       id="path5491"
       inkscape:connector-curvature="0"
       sodipodi:nodetypes="ccccccccccccccccccccccccccccccccccccccscccccccccccccccccccccccccccccccccccccccccccccccccccc"
       inkscape:export-xdpi="300"
       inkscape:export-ydpi="300" />
    <path
       style="fill:#f9f9f9;fill-rule:evenodd;stroke:#000000;stroke-width:1px;stroke-linecap:butt;stroke-linejoin:miter;stroke-opacity:1"
       d="m 255.78368,463.99264 0,6.04587 -7.4952,2.00834 0.3297,-8.27813 -52.3976,0 -0.5338,1.99225 -43.1308,0 0,-8.93382 42.7689,0 0,-1.79137 52.6216,0 0,-5.37411 8.0611,0 z"
       id="path6067"
       inkscape:connector-curvature="0"
       inkscape:export-xdpi="300"
       inkscape:export-ydpi="300" />
    <path
       style="fill:#00ff00;fill-rule:evenodd;stroke:#000000;stroke-width:1px;stroke-linecap:butt;stroke-linejoin:miter;stroke-opacity:1"
       d="m 563.39892,572.33105 5.9283,0.052 -0.2918,-7.2176 7.4573,-0.027 -0.2895,-5.7948 -6.4281,0.1311 -0.1846,-5.9146 -5.8584,0.1583 -0.3167,-6.4126 -6.4918,-0.2375 -0.1583,-19.0795 6.0168,-0.079 0,-6.5709 6.4126,0 -0.079,-12.58778 6.3335,-0.15834 0,-6.33345 12.6669,0 0,-11.79606 -18.842,0 0,-6.49179 -12.4295,0 c -0.59901,-11.91935 0.45005,-25.00686 -1.3334,-33.53953 l -16.87341,-4.28571 2.85714,-12.20608 25.66815,1e-5 2.42762,42.82701 6.096,0 0,-6.09595 12.271,0 0,-12.90441 6.6502,0 0,-5.77928 -6.3335,0 c 0,0 -0.5542,-25.88799 0,-25.88799 l 25.7297,0 0,25.25465 24.6213,0 0,-11.47939 -5.7793,0 0,-6.80846 -6.571,0 0,-6.9668 19.7921,0 0,13.37942 6.2543,0 0,25.49215 -12.7461,0 0,6.25429 -19.0004,0 0,43.46329 6.4918,0 0,31.509 6.0168,0 0,31.9047 6.1751,0 0,13.3795 -12.3502,0 0,-6.571 -6.8085,0 0,-25.1755 -6.5709,0 0,-18.842 -6.4127,0 0,-18.9212 -6.0167,0 0,-6.3335 -5.8585,0 0,6.0168 -12.5086,0 0,6.096 -6.4917,0 0,6.8084 -6.096,0 0,5.3043 5.7001,0 0,6.6501 6.7293,0 0,12.2711 6.3335,0 0,13.1419 -6.2543,0 0,6.571 -6.3335,0 0,6.4918 -13.2211,0 c 0,-4.1951 0.3,-8.6339 0.3,-12.6591 z"
       id="path5491-3"
       inkscape:connector-curvature="0"
       sodipodi:nodetypes="ccccccccccccccccccccccccccccccccccscccccccccccccccccccccccccccccccccccccccccccccccccccc"
       inkscape:export-xdpi="300"
       inkscape:export-ydpi="300" />
    <path
       style="fill:#f9f9f9;fill-rule:evenodd;stroke:#000000;stroke-width:1px;stroke-linecap:butt;stroke-linejoin:miter;stroke-opacity:1"
       d="m 545.19191,443.84978 0,6.04587 -7.4952,2.00834 0.3297,-8.27813 c -33.94134,0.91079 -62.70498,1.26375 -96.0622,-3.00775 l -0.71429,-8.93382 c 32.65544,-1.06575 62.88425,1.45256 96.10479,3.20863 l 0,-5.37411 8.0611,0 z"
       id="path6067-6"
       inkscape:connector-curvature="0"
       sodipodi:nodetypes="cccccccccc"
       inkscape:export-xdpi="300"
       inkscape:export-ydpi="300" />
    <path
       style="fill:#000000;fill-rule:evenodd;stroke:#000000;stroke-width:1px;stroke-linecap:butt;stroke-linejoin:miter;stroke-opacity:1"
       d="m 588.57143,441.64792 10.71428,0 c 0.47958,0 0.95849,-0.0307 1.4355,-0.0803 0.23851,-0.0248 0.47775,-0.0486 0.71752,-0.0452 0.23976,0.003 0.4819,0.0354 0.70413,0.12548 0.24944,0.1011 0.46356,0.2709 0.68762,0.42004 0.22405,0.14914 0.47206,0.28245 0.74095,0.29424 0.2001,0.009 0.3971,-0.0507 0.58263,-0.1262 0.18553,-0.0755 0.36461,-0.16755 0.55518,-0.22918 0.19057,-0.0616 0.39781,-0.0917 0.59115,-0.0394 0.0967,0.0261 0.18839,0.073 0.26224,0.14067 0.0738,0.0676 0.12922,0.15647 0.15166,0.25407 0.0309,0.13436 -0.002,0.27731 -0.065,0.39984 -0.0632,0.12254 -0.15504,0.22766 -0.24882,0.32871 -0.0938,0.10106 -0.19096,0.20011 -0.26765,0.31467 -0.0767,0.11456 -0.13257,0.2475 -0.13281,0.38536 -2.1e-4,0.12326 0.0435,0.24185 0.0651,0.36319 0.0108,0.0607 0.0161,0.12292 0.008,0.18395 -0.009,0.061 -0.0317,0.12104 -0.0726,0.16714 -0.0418,0.0471 -0.10025,0.0776 -0.16155,0.0918 -0.0613,0.0142 -0.12542,0.0129 -0.18762,0.003 -0.12441,-0.0191 -0.24175,-0.0702 -0.36512,-0.0951 -0.18388,-0.0371 -0.37513,-0.0147 -0.55754,0.0291 -0.18241,0.0438 -0.35911,0.10856 -0.54017,0.15762 -0.18107,0.0491 -0.3696,0.0825 -0.55601,0.0615 -0.18642,-0.021 -0.37179,-0.10177 -0.48913,-0.24813 -0.0805,-0.10035 -0.12549,-0.22853 -0.12549,-0.35714 0,-0.12861 0.045,-0.25679 0.12549,-0.35714"
       id="path6199"
       inkscape:path-effect="#path-effect6201"
       inkscape:original-d="m 588.57143,441.64792 c 3.57143,0 7.14286,0 10.71428,0 0.95239,0 1.91772,-0.15657 2.85715,0 0.52515,0.0875 0.92349,0.54593 1.42857,0.71428 0.53571,0.17858 1.78571,-0.35714 2.14286,0 2.02381,2.02381 -0.53572,1.25 -0.71429,1.42858 -0.16836,0.16835 0.16836,0.54592 0,0.71428 -0.16836,0.16836 -0.47619,0 -0.71429,0 -0.17323,0 -2.11988,0.023 -2.14285,0 -0.16836,-0.16836 0,-0.47619 0,-0.71428"
       inkscape:connector-curvature="0"
       inkscape:export-xdpi="300"
       inkscape:export-ydpi="300" />
    <ellipse
       style="opacity:1;fill:#000000;fill-opacity:1;stroke:none;stroke-width:3;stroke-miterlimit:4;stroke-dasharray:none;stroke-opacity:1"
       id="path6203"
       cx="597.14288"
       cy="430.93362"
       rx="1.4285715"
       ry="2.1428571"
       inkscape:export-xdpi="300"
       inkscape:export-ydpi="300" />
    <path
       style="fill:none;fill-rule:evenodd;stroke:#000000;stroke-width:0.77126831px;stroke-linecap:butt;stroke-linejoin:miter;stroke-opacity:1"
       d="m 299.21123,438.29016 c 4.36551,5.81321 15.92012,-5.33448 15.92012,-6.00509"
       id="path6205"
       inkscape:connector-curvature="0"
       sodipodi:nodetypes="cc"
       inkscape:export-xdpi="300"
       inkscape:export-ydpi="300" />
    <ellipse
       style="opacity:1;fill:#000000;fill-opacity:1;stroke:none;stroke-width:3;stroke-miterlimit:4;stroke-dasharray:none;stroke-opacity:1"
       id="path6203-7"
       cx="309.28568"
       cy="425.07651"
       rx="1.4285715"
       ry="2.1428571"
       inkscape:export-xdpi="300"
       inkscape:export-ydpi="300" />
    <path
       style="fill:#00ff00;fill-rule:evenodd;stroke:#000000;stroke-width:1px;stroke-linecap:butt;stroke-linejoin:miter;stroke-opacity:1"
       d="m 210.54178,387.33105 5.9283,0.052 -0.2918,-7.2176 7.4573,-0.027 -0.2895,-5.7948 -6.4281,0.1311 -0.1846,-5.9146 -5.8584,0.1583 -0.3167,-6.4126 -6.4918,-0.2375 -0.1583,-19.0795 6.0168,-0.079 0,-6.5709 6.4126,0 -0.079,-12.58778 6.3335,-0.15834 0,-6.33345 12.6669,0 0,-11.79606 -16.69914,-1.42857 -25,0.65107 -30.28664,2.49999 -6.07143,-3.55547 -3.11912,-0.35714 0,-6.41262 38.12659,-1.42858 -0.85214,-8.30266 c 16.40264,-0.27093 6.85952,-1.45806 43.74348,-1.45806 l 0,-12.90441 6.6502,0 0,-5.77928 -6.3335,0 c 0,0 -0.5542,-25.88799 0,-25.88799 l 25.7297,0 0,25.25465 24.6213,0 0,-11.47939 -5.7793,0 0,-6.80846 -6.571,0 0,-6.9668 19.7921,0 0,13.37942 6.2543,0 0,25.49215 -12.7461,0 0,6.25429 -19.0004,0 0,43.46329 6.4918,0 0,31.509 6.0168,0 0,31.9047 6.1751,0 0,13.3795 -12.3502,0 0,-6.571 -6.8085,0 0,-25.1755 -6.5709,0 0,-18.842 -6.4127,0 0,-18.9212 -6.0167,0 0,-6.3335 -5.8585,0 0,6.0168 -12.5086,0 0,6.096 -6.4917,0 0,6.8084 -6.096,0 0,5.3043 5.7001,0 0,6.6501 6.7293,0 0,12.2711 6.3335,0 0,13.1419 -6.2543,0 0,6.571 -6.3335,0 0,6.4918 -13.2211,0 c 0,-4.1951 0.3,-8.6339 0.3,-12.6591 z"
       id="path5491-5"
       inkscape:connector-curvature="0"
       sodipodi:nodetypes="ccccccccccccccccccccccccccccccccscccccccccccccccccccccccccccccccccccccccccccccccccccc"
       inkscape:export-xdpi="300"
       inkscape:export-ydpi="300" />
    <path
       style="fill:#f9f9f9;fill-rule:evenodd;stroke:#000000;stroke-width:1px;stroke-linecap:butt;stroke-linejoin:miter;stroke-opacity:1"
       d="m 168.76334,304.99264 0,6.04587 -7.4952,2.00834 0.3297,-8.27813 -52.3976,0 -0.5338,1.99225 -43.130804,0 0,-8.93382 42.768904,0 0,-1.79137 52.6216,0 0,-5.37411 8.0611,0 z"
       id="path6067-3"
       inkscape:connector-curvature="0"
       inkscape:export-xdpi="300"
       inkscape:export-ydpi="300" />
    <path
       style="color:#000000;font-style:normal;font-variant:normal;font-weight:normal;font-stretch:normal;font-size:medium;line-height:normal;font-family:sans-serif;text-indent:0;text-align:start;text-decoration:none;text-decoration-line:none;text-decoration-style:solid;text-decoration-color:#000000;letter-spacing:normal;word-spacing:normal;text-transform:none;direction:ltr;block-progression:tb;writing-mode:lr-tb;baseline-shift:baseline;text-anchor:start;white-space:normal;clip-rule:nonzero;display:inline;overflow:visible;visibility:visible;opacity:1;isolation:auto;mix-blend-mode:normal;color-interpolation:sRGB;color-interpolation-filters:linearRGB;solid-color:#000000;solid-opacity:1;fill:#000000;fill-opacity:1;fill-rule:evenodd;stroke:none;stroke-width:0.77126831px;stroke-linecap:butt;stroke-linejoin:miter;stroke-miterlimit:4;stroke-dasharray:none;stroke-dashoffset:0;stroke-opacity:1;color-rendering:auto;image-rendering:auto;shape-rendering:auto;text-rendering:auto;enable-background:accumulate"
       d="m 247.57227,255.84766 -0.52539,0.57422 c -1.233,1.34716 -2.31449,1.35665 -3.55665,1 -1.24215,-0.35666 -2.56471,-1.17178 -3.97851,-1.4668 l -0.46289,-0.0957 0,0.47265 c 0.74554,4.3471 0.43966,-1.5817 0.74554,4.3471 1.12539,0.31321 3.10907,-0.73788 4.37583,-0.37416 1.2095,0.34728 1.45516,1.57368 2.70201,0.55552 l 0.68052,-0.82729 0.75977,-0.13867 z"
       id="path6205-5"
       inkscape:connector-curvature="0"
       sodipodi:nodetypes="ccsccccscccc"
       inkscape:export-xdpi="300"
       inkscape:export-ydpi="300" />
    <ellipse
       style="opacity:1;fill:#000000;fill-opacity:1;stroke:none;stroke-width:3;stroke-miterlimit:4;stroke-dasharray:none;stroke-opacity:1"
       id="path6203-7-6"
       cx="245.83673"
       cy="247.93365"
       rx="1.4285715"
       ry="2.1428571"
       inkscape:export-xdpi="300"
       inkscape:export-ydpi="300" />
  </g>
</svg>
